{"title":"Japanese_Schoolgirl_Humping_Objects_-7","uid":5076459,"size":113481728,"categoryP":"porn","categoryS":"movie_clips","magnet":"?xt=urn:btih:86dd362677054d55b302a908adb5f51ccc1ab038&amp;dn=Japanese_Schoolgirl_Humping_Objects_-7&amp;tr=udp%3A%2F%2Ftracker.openbittorrent.com%3A80&amp;tr=udp%3A%2F%2Fopen.demonii.com%3A1337&amp;tr=udp%3A%2F%2Ftracker.coppersurfer.tk%3A6969&amp;tr=udp%3A%2F%2Fexodus.desync.com%3A6969","seeders":0,"leechers":2,"uploader":"sandokan89","files":-1,"time":1251888614,"description":"------------ Japanese_Schoolgirl_Humping_Objects_-7------------\n\nVideo\nFormat                           : MPEG-4 Visual ---- AVI\nFormat profile                   : Simple@L3\nFormat settings, BVOP            : No\nFormat settings, QPel            : No\nFormat settings, GMC             : No warppoints\nFormat settings, Matrix          : Default (H.263)\nCodec ID                         : XVID\nCodec ID/Hint                    : XviD\nDuration                         : 15mn 4s\nBit rate                         : 800 Kbps\nWidth                            : 720 pixels\nHeight                           : 540 pixels\nDisplay aspect ratio             : 4/3\nFrame rate                       : 29.970 fps\nResolution                       : 24 bits\nColorimetry                      : 4:2:0\nScan type                        : Progressive\nBits/(Pixel*Frame)               : 0.069\nStream size                      : 86.2 MiB (80%)\nWriting library                  : XviD 1.1.0 (UTC 2005-11-22)\n\nAudio\nFormat                           : MPEG Audio\nFormat version                   : Version 1\nFormat profile                   : Layer 3\nCodec ID                         : 55\nCodec ID/Hint                    : MP3\nDuration                         : 15mn 4s\nBit rate mode                    : Constant\nBit rate                         : 192 Kbps\nChannel(s)                       : 2 channels\nSampling rate                    : 44.1 KHz\nResolution                       : 16 bits\nVideo delay                      : 14ms\nStream size                      : 20.7 MiB (19%)\nAlignment                        : Split accross interleaves\nInterleave, duration             : 33 ms (1.00 video frame)\nInterleave, preload duration     : 500 ms\n","torrent":{"xt":"urn:btih:86dd362677054d55b302a908adb5f51ccc1ab038","amp;dn":"Japanese_Schoolgirl_Humping_Objects_-7","amp;tr":["udp%3A%2F%2Ftracker.openbittorrent.com%3A80","udp%3A%2F%2Fopen.demonii.com%3A1337","udp%3A%2F%2Ftracker.coppersurfer.tk%3A6969","udp%3A%2F%2Fexodus.desync.com%3A6969"],"infoHash":"86dd362677054d55b302a908adb5f51ccc1ab038","infoHashBuffer":{"type":"Buffer","data":[134,221,54,38,119,5,77,85,179,2,169,8,173,181,245,28,204,26,176,56]},"announce":[],"urlList":[]}}